<svg width="195" height="195" viewBox="0 0 195 195" fill="none" xmlns="http://www.w3.org/2000/svg">
<g clip-path="url(#clip0)">
<path d="M44.8562 66.4011C43.3709 64.9158 40.9562 64.9158 39.4712 66.4011C37.9821 67.8903 37.9821 70.3011 39.4712 71.7865C40.9566 73.2756 43.3712 73.2756 44.8562 71.7865C46.345 70.3011 46.345 67.8903 44.8562 66.4011Z" fill="#F4538D"/>
<path d="M96.4334 170.518C98.1126 168.243 99.0202 165.503 99.0202 162.622C99.0202 155.272 93.0407 149.292 85.6905 149.292H20.9465C17.3844 149.292 14.037 150.679 11.5206 153.196C9.00315 155.712 7.61682 159.06 7.61682 162.622C7.61682 165.573 8.58268 168.302 10.2124 170.513C4.14795 173.702 0 180.062 0 187.377V191.185C0 193.289 1.70549 194.994 3.8086 194.994H102.828C104.932 194.994 106.637 193.289 106.637 191.185V187.377C106.637 180.066 102.493 173.708 96.4334 170.518ZM16.9064 158.581C17.9846 157.502 19.4197 156.909 20.9465 156.909H85.6905C88.8406 156.909 91.403 159.471 91.403 162.621C91.403 164.148 90.8089 165.583 89.7303 166.662C88.652 167.74 87.217 168.334 85.6901 168.334H20.9465C17.7965 168.334 15.234 165.771 15.234 162.622C15.234 161.095 15.8278 159.66 16.9064 158.581ZM7.61682 187.377C7.61682 181.077 12.7424 175.951 19.0422 175.951H20.9465H85.6905H87.5948C93.8946 175.951 99.0202 181.077 99.0202 187.377H7.61682Z" fill="#F4538D"/>
<path d="M191.456 160.009C190.162 158.004 188.619 156.232 186.868 154.74L169.073 139.219C168.934 139.01 168.773 138.812 168.589 138.628C168.28 138.319 167.93 138.078 167.557 137.898L156.795 128.511L106.983 85.0587C109.022 82.9271 110.145 80.1395 110.145 77.1753C110.145 74.1216 108.956 71.2518 106.795 69.0916C105.853 68.1505 104.782 67.4104 103.638 66.8685L108.246 62.2601C109.534 62.6025 110.858 62.7777 112.182 62.7777C116.083 62.7773 119.983 61.2927 122.952 58.3235C125.831 55.4453 127.416 51.6196 127.416 47.5509C127.416 43.4821 125.831 39.6564 122.953 36.7782L90.6376 4.46379C87.7595 1.58563 83.9334 0.000488281 79.8635 0.000488281C75.7955 0.000488281 71.9706 1.58563 69.0928 4.46379C65.1151 8.44149 63.8057 14.0893 65.1562 19.1707L19.1769 65.1497C17.9063 64.8118 16.5844 64.6336 15.2338 64.6336C11.1632 64.6336 7.33897 66.2176 4.4631 69.0931C-1.47679 75.033 -1.47679 84.6981 4.4631 90.6383L36.7779 122.954C39.7483 125.924 43.6494 127.408 47.5506 127.408C51.4521 127.408 55.3532 125.924 58.3236 122.954C62.3013 118.975 63.6107 113.328 62.2601 108.247L66.859 103.647C67.4117 104.801 68.1616 105.866 69.0932 106.797C71.2511 108.955 74.1201 110.144 77.1731 110.144C80.1343 110.144 82.9207 109.023 85.0554 106.986L138.111 167.945C138.258 168.173 138.428 168.391 138.628 168.59C138.696 168.658 138.768 168.72 138.84 168.782L154.65 186.947C155.043 187.411 155.463 187.867 155.9 188.303C160.242 192.644 165.977 194.999 171.999 194.999C173.06 194.999 174.131 194.926 175.204 194.778C182.375 193.785 188.573 189.495 192.207 183.006C196.188 175.894 195.892 166.865 191.456 160.009ZM74.4793 9.84991C75.9185 8.41064 77.8312 7.61769 79.8639 7.61769C81.8992 7.61769 83.813 8.41064 85.2519 9.84991L117.567 42.1647C119.006 43.604 119.799 45.5171 119.799 47.5513C119.799 49.5854 119.006 51.4985 117.567 52.9378C114.598 55.9073 109.766 55.9073 106.798 52.9378L74.4812 20.6214C74.4804 20.6206 74.48 20.6203 74.4793 20.6195C71.5097 17.6503 71.5097 12.8191 74.4793 9.84991ZM52.9375 117.567C49.9675 120.537 45.134 120.538 42.1641 117.567L9.84922 85.2526C6.8789 82.2823 6.8789 77.4499 9.84922 74.4792C11.2858 73.0422 13.1985 72.2508 15.2338 72.2508C17.2688 72.2508 19.1803 73.0418 20.6165 74.4777L52.9371 106.798C55.907 109.767 55.907 114.599 52.9375 117.567ZM68.9724 90.7625L58.3232 101.412L26.0049 69.0938L69.0928 26.0052L101.411 58.3235L90.742 68.9925C90.7073 69.0253 90.6734 69.0573 90.6369 69.0935L69.1038 90.6269C69.0593 90.6707 69.0162 90.7164 68.9724 90.7625ZM82.5714 98.7076C82.5638 98.7152 82.5566 98.7225 82.5489 98.7301L79.8669 101.412C79.1475 102.131 78.1911 102.527 77.1727 102.527C76.1547 102.527 75.198 102.131 74.4789 101.412C73.7587 100.692 73.3622 99.7344 73.3622 98.7156C73.3622 97.7185 73.7427 96.7805 74.4332 96.0728L96.0664 74.4396C97.5491 72.9977 99.9463 73.0156 101.411 74.4792C102.131 75.199 102.528 76.1565 102.528 77.1753C102.528 78.1934 102.132 79.1482 101.411 79.8676L98.7446 82.534C98.7264 82.5519 98.7081 82.5702 98.6902 82.5885L82.5714 98.7076ZM90.4583 101.593L101.589 90.4616L148.718 131.57L131.52 148.768L90.4583 101.593ZM136.533 154.527L154.471 136.588L160.225 141.607L141.545 160.287L136.533 154.527ZM185.562 179.285C183.104 183.674 178.948 186.57 174.16 187.233C169.384 187.894 164.69 186.321 161.285 182.917C160.992 182.624 160.711 182.319 160.45 182.01C160.438 181.995 160.426 181.981 160.413 181.967L146.557 166.046L165.978 146.625L181.879 160.495C181.891 160.506 181.903 160.516 181.915 160.527C183.106 161.538 184.162 162.754 185.058 164.142C187.938 168.593 188.14 174.679 185.562 179.285Z" fill="#F4538D"/>
<path d="M71.7861 39.4709C70.2984 37.9837 67.8876 37.9837 66.3999 39.4709L50.2408 55.63C48.7536 57.1173 48.7536 59.5289 50.2408 61.0158C50.9846 61.7596 51.9593 62.1313 52.9339 62.1313C53.9085 62.1313 54.8831 61.7592 55.6269 61.0158L71.7861 44.8567C73.2733 43.3698 73.2733 40.9586 71.7861 39.4709Z" fill="#F4538D"/>
</g>
<defs>
<clipPath id="clip0">
<rect width="195" height="195" fill="white"/>
</clipPath>
</defs>
</svg>
