<svg width="142" height="142" viewBox="0 0 142 142" fill="none" xmlns="http://www.w3.org/2000/svg">
<path d="M124.754 5H32.5859C31.5178 5 30.6523 5.86548 30.6523 6.93359C30.6523 8.00171 31.5178 8.86719 32.5859 8.86719H124.754C129.374 8.86719 133.133 12.6258 133.133 17.2461V124.754C133.133 129.374 129.374 133.133 124.754 133.133H17.2461C12.6258 133.133 8.86719 129.374 8.86719 124.754V17.2461C8.86719 12.6258 12.6258 8.86719 17.2461 8.86719H23.5625C24.6306 8.86719 25.4961 8.00171 25.4961 6.93359C25.4961 5.86548 24.6306 5 23.5625 5H17.2461C10.4937 5 5 10.4937 5 17.2461V124.754C5 131.506 10.4937 137 17.2461 137H124.754C131.506 137 137 131.506 137 124.754V17.2461C137 10.4937 131.506 5 124.754 5Z" fill="#F4538D"/>
<path d="M55.8386 15.8281H20.9349C18.119 15.8281 15.8281 18.119 15.8281 20.9349V55.8388C15.8281 58.6544 18.119 60.9453 20.9349 60.9453H32.5859V81.0547H20.9349C18.119 81.0547 15.8281 83.3456 15.8281 86.1614V121.065C15.8281 123.881 18.119 126.172 20.9349 126.172H55.8388C58.6547 126.172 60.9456 123.881 60.9456 121.065V110.703H81.055V121.065C81.055 123.881 83.3459 126.172 86.1617 126.172H121.066C123.881 126.172 126.172 123.881 126.172 121.065V86.1614C126.172 83.3456 123.881 81.0547 121.066 81.0547H109.414V76.9297C109.414 75.8616 108.549 74.9961 107.48 74.9961C106.412 74.9961 105.547 75.8616 105.547 76.9297V92.8305C104.919 92.7181 104.273 92.6562 103.613 92.6562C102.953 92.6562 102.308 92.7181 101.68 92.8305V49.1695C102.308 49.2819 102.953 49.3438 103.613 49.3438C104.273 49.3438 104.919 49.2819 105.547 49.1695V67.9062C105.547 68.9744 106.412 69.8398 107.48 69.8398C108.549 69.8398 109.414 68.9744 109.414 67.9062V60.9453H121.065C123.881 60.9453 126.172 58.6544 126.172 55.8386V20.9349C126.172 18.119 123.881 15.8281 121.065 15.8281H86.1614C83.3456 15.8281 81.0547 18.119 81.0547 20.9349V31.2969H60.9453V20.9349C60.9453 18.119 58.6544 15.8281 55.8386 15.8281ZM93.1407 35.1641C92.8264 36.1835 92.6563 37.2655 92.6563 38.3867C92.6563 38.6033 92.6642 38.8178 92.6769 39.0312H75.6406C74.5725 39.0312 73.707 39.8967 73.707 40.9648C73.707 42.033 74.5725 42.8984 75.6406 42.8984H81.0547V55.8386C81.0547 58.6544 83.3456 60.9453 86.1614 60.9453H97.8125V81.0547H86.1614C83.3456 81.0547 81.0547 83.3456 81.0547 86.1614V99.1016H60.9453V96.5234C60.9453 95.4553 60.0798 94.5898 59.0117 94.5898C57.9436 94.5898 57.0781 95.4553 57.0781 96.5234V99.1016H48.3677C47.472 97.1283 46.0095 95.4659 44.1875 94.324V84.9219H55.8386C56.522 84.9219 57.0781 85.4777 57.0781 86.1614V87.5C57.0781 88.5681 57.9436 89.4336 59.0117 89.4336C60.0798 89.4336 60.9453 88.5681 60.9453 87.5V86.1614C60.9453 83.3456 58.6544 81.0547 55.8386 81.0547H44.1875V60.9453H55.8386C58.6544 60.9453 60.9453 58.6544 60.9453 55.8386V42.8984H66.6172C67.6853 42.8984 68.5508 42.033 68.5508 40.9648C68.5508 39.8967 67.6853 39.0312 66.6172 39.0312H49.3231C49.3355 38.8178 49.3438 38.6033 49.3438 38.3867C49.3438 37.2655 49.1739 36.1835 48.8593 35.1641H93.1407ZM93.1407 106.836H48.8593C49.1736 105.817 49.3438 104.735 49.3438 103.613C49.3438 103.397 49.3358 103.182 49.3231 102.969H92.6769C92.6645 103.182 92.6563 103.397 92.6563 103.613C92.6563 104.735 92.8262 105.817 93.1407 106.836ZM44.1875 47.676C46.0097 46.5341 47.472 44.8717 48.3677 42.8984H57.0781V55.8386C57.0781 56.522 56.5223 57.0781 55.8386 57.0781H44.1875V47.676ZM45.4766 38.3867C45.4766 42.2959 42.2959 45.4766 38.3867 45.4766C34.4775 45.4766 31.2969 42.2959 31.2969 38.3867C31.2969 34.4775 34.4775 31.2969 38.3867 31.2969C42.2959 31.2969 45.4766 34.4775 45.4766 38.3867ZM36.4531 49.1695C37.0814 49.2819 37.7267 49.3438 38.3867 49.3438C39.0467 49.3438 39.692 49.2819 40.3203 49.1695V92.8305C39.692 92.7181 39.0467 92.6562 38.3867 92.6562C37.7267 92.6562 37.0814 92.7181 36.4531 92.8305V49.1695ZM38.3867 96.5234C42.2959 96.5234 45.4766 99.7041 45.4766 103.613C45.4766 107.522 42.2959 110.703 38.3867 110.703C34.4775 110.703 31.2969 107.522 31.2969 103.613C31.2969 99.7041 34.4775 96.5234 38.3867 96.5234ZM20.9349 57.0781C20.2514 57.0781 19.6953 56.5223 19.6953 55.8386V20.9349C19.6953 20.2512 20.2512 19.6953 20.9349 19.6953H55.8388C56.5223 19.6953 57.0784 20.2512 57.0784 20.9349V31.2969H46.7313C44.7199 28.9332 41.7267 27.4297 38.387 27.4297C32.3449 27.4297 27.4297 32.3449 27.4297 38.3867C27.4297 42.2993 29.4924 45.7372 32.5859 47.676V57.0781H20.9349ZM57.0781 121.065C57.0781 121.749 56.5223 122.305 55.8386 122.305H20.9349C20.2514 122.305 19.6953 121.749 19.6953 121.065V86.1614C19.6953 85.478 20.2512 84.9219 20.9349 84.9219H32.5859V94.324C29.4924 96.2628 27.4297 99.7007 27.4297 103.613C27.4297 109.655 32.3449 114.57 38.3867 114.57C41.7262 114.57 44.7196 113.067 46.7311 110.703H57.0781V121.065ZM109.414 84.9219H121.065C121.749 84.9219 122.305 85.4777 122.305 86.1614V121.065C122.305 121.749 121.749 122.305 121.065 122.305H86.1614C85.478 122.305 84.9219 121.749 84.9219 121.065V110.703H95.2689C97.2804 113.067 100.274 114.57 103.613 114.57C109.655 114.57 114.57 109.655 114.57 103.613C114.57 99.7007 112.508 96.2628 109.414 94.324V84.9219ZM110.703 103.613C110.703 107.522 107.522 110.703 103.613 110.703C99.7041 110.703 96.5234 107.522 96.5234 103.613C96.5234 99.7041 99.7041 96.5234 103.613 96.5234C107.522 96.5234 110.703 99.7041 110.703 103.613ZM93.6323 99.1016H84.9219V86.1614C84.9219 85.478 85.4777 84.9219 86.1614 84.9219H97.8125V94.324C95.9903 95.4659 94.528 97.1283 93.6323 99.1016ZM97.8125 57.0781H86.1614C85.478 57.0781 84.9219 56.5223 84.9219 55.8386V42.8984H93.6323C94.528 44.8717 95.9905 46.5341 97.8125 47.676V57.0781ZM96.5234 38.3867C96.5234 34.4775 99.7041 31.2969 103.613 31.2969C107.522 31.2969 110.703 34.4775 110.703 38.3867C110.703 42.2959 107.522 45.4766 103.613 45.4766C99.7041 45.4766 96.5234 42.2959 96.5234 38.3867ZM84.9219 20.9349C84.9219 20.2514 85.4777 19.6953 86.1614 19.6953H121.065C121.749 19.6953 122.305 20.2512 122.305 20.9349V55.8388C122.305 56.5223 121.749 57.0784 121.065 57.0784H109.414V47.6762C112.508 45.7375 114.57 42.2995 114.57 38.387C114.57 32.3451 109.655 27.4299 103.613 27.4299C100.274 27.4299 97.2804 28.9335 95.2689 31.2971H84.9219V20.9349Z" fill="#F4538D"/>
</svg>
