<svg width="61" height="245" viewBox="0 0 61 245" fill="none" xmlns="http://www.w3.org/2000/svg">
<path d="M23.0396 154.438C23.0396 171.719 18.2122 194.031 18.2122 213.281C18.2122 234.719 30.9388 245 50.0288 245H61V231.656H52.6619C40.1547 231.656 33.1331 226.187 33.1331 212.187C33.1331 194.25 37.9604 171.5 37.9604 154C37.9604 138.687 30.7194 126.656 13.3849 122.719V122.281C30.7194 118.344 37.9604 106.312 37.9604 91C37.9604 73.2812 33.1331 50.75 33.1331 32.8125C33.1331 18.8125 40.1547 13.3437 52.6619 13.3437H61V0H50.0288C30.9388 0 18.2122 10.2812 18.2122 31.7187C18.2122 50.9687 23.0396 73.0625 23.0396 90.5625C23.0396 101.281 18.4317 112 0 116.156V128.625C18.4317 133 23.0396 143.719 23.0396 154.438Z" fill="#F4538D"/>
</svg>
