<svg width="184" height="184" viewBox="0 0 184 184" fill="none" xmlns="http://www.w3.org/2000/svg">
<g clip-path="url(#clip0)">
<path d="M60.8921 62.8823C58.9152 62.8823 57.3118 64.4925 57.3118 66.4747C57.3118 68.4583 58.9152 70.067 60.8921 70.067C62.869 70.067 64.4724 68.4583 64.4724 66.4747C64.4724 64.4925 62.869 62.8823 60.8921 62.8823Z" fill="#F4538D"/>
<path d="M142.954 71.2896C145.859 68.0412 147.538 63.7848 147.538 59.2899C147.538 49.386 139.507 41.3281 129.635 41.3281C120.438 41.3281 112.841 48.3247 111.846 57.2908C101.18 53.6999 90.468 51.2727 79.9327 50.0668C63.051 48.138 46.0196 50.1735 33.2051 55.6512C12.5472 64.4853 2.15598 79.8079 0.297959 94.6349C-1.1851 106.463 2.93389 117.888 11.0879 124.841C12.8298 132.98 21.0664 137.893 28.97 135.66C65.8366 125.239 110.618 127.467 145.841 141.476C151.32 143.656 157.375 142.206 161.325 138.198C184.564 136.3 190.095 113.739 174.798 96.2367C167.188 87.5303 156.003 78.7859 142.954 71.2896ZM129.635 48.5128C135.559 48.5128 140.377 53.3475 140.377 59.2899C140.377 62.5874 138.868 65.666 136.353 67.6916C130.702 64.7675 124.853 62.1368 118.909 59.843C118.901 59.6605 118.894 59.4752 118.894 59.2899C118.894 53.3475 123.712 48.5128 129.635 48.5128ZM148.481 134.797C110.892 119.847 64.9524 118.024 27.028 128.743C22.8237 129.932 18.4417 127.074 17.959 122.547C17.6064 119.072 19.789 115.862 23.1483 114.913C64.9608 103.096 113.786 105.534 153.756 121.438C157.409 122.889 159.243 127.049 157.774 130.769C156.317 134.461 152.142 136.254 148.481 134.797ZM165.286 130.223C166.237 123.859 162.788 117.298 156.394 114.759C115.015 98.2947 64.4781 95.7678 21.2077 107.998C17.1349 109.148 13.9309 111.965 12.1946 115.559C8.26591 110.205 6.46805 102.996 7.40266 95.5306C9.17254 81.4055 19.6001 69.2794 36.0117 62.2617C47.7209 57.2557 63.4344 55.4125 79.1212 57.2052C116.538 61.4882 152.775 81.9375 169.414 100.973C179.047 111.996 179.207 126.388 165.286 130.223Z" fill="#F4538D"/>
<path d="M45.9805 66.3386C31.4521 70.4714 18.099 79.5189 15.0741 94.5018C14.6809 96.4461 15.9345 98.3412 17.8723 98.7357C18.1116 98.7834 18.3508 98.8073 18.5873 98.8073C20.255 98.8073 21.7479 97.6323 22.092 95.9281C24.5545 83.7304 36.114 76.6117 47.9337 73.2509C49.8365 72.7105 50.9418 70.7241 50.4017 68.8149C49.863 66.9057 47.8833 65.7981 45.9805 66.3386Z" fill="#F4538D"/>
</g>
<defs>
<clipPath id="clip0">
<rect width="183.385" height="184" fill="white"/>
</clipPath>
</defs>
</svg>
