<svg width="188" height="188" viewBox="0 0 188 188" fill="none" xmlns="http://www.w3.org/2000/svg">
<path d="M39.5038 35.7211L39.3632 66.9711C39.3606 67.5516 39.1964 68.1199 38.8889 68.6123C38.5815 69.1047 38.1429 69.5017 37.6225 69.7588C37.1021 70.016 36.5203 70.1231 35.9424 70.0681C35.3645 70.0131 34.8134 69.7983 34.3507 69.4477L31.4007 67.2121C26.8714 77.824 25.1095 89.4117 26.28 100.89C27.4505 112.369 31.5152 123.362 38.0933 132.841L32.9617 136.409C25.3772 125.482 20.8601 112.723 19.8804 99.4583C18.9008 86.1938 21.4944 72.9091 27.3913 60.9871C27.5956 60.575 27.8883 60.2131 28.2486 59.9271C28.6089 59.6412 29.0279 59.4383 29.4757 59.333C29.9234 59.2276 30.3889 59.2225 30.8389 59.3178C31.2889 59.4131 31.7123 59.6066 32.0788 59.8844L33.1417 60.6895L33.2355 39.8598L13.2144 45.602L16.3706 47.9903C16.9684 48.4426 17.3836 49.0948 17.5406 49.8278C17.6975 50.5608 17.5858 51.3258 17.2257 51.9832C15.1419 55.7912 13.3455 59.7494 11.8515 63.825L5.98314 61.6766C7.27389 58.1555 8.77543 54.7153 10.4796 51.3746L4.45775 46.8164C3.99496 46.4662 3.63885 45.994 3.42933 45.4528C3.21981 44.9115 3.16515 44.3226 3.27148 43.7521C3.37782 43.1815 3.64094 42.6518 4.03136 42.2224C4.42179 41.793 4.92408 41.4808 5.48197 41.3207L35.5171 32.7032C35.9835 32.5694 36.4746 32.546 36.9515 32.6349C37.4285 32.7238 37.8782 32.9226 38.265 33.2154C38.6519 33.5082 38.9652 33.8871 39.1802 34.322C39.3952 34.757 39.506 35.236 39.5038 35.7211ZM10.1976 136.029L15.7835 133.222C7.77872 117.331 4.8406 99.3667 7.36556 81.7536C7.86911 78.1932 8.58853 74.6668 9.51986 71.1938L3.48353 69.5727C2.48681 73.2914 1.71716 77.0672 1.17884 80.8793C-1.52742 99.7522 1.6204 119.001 10.1976 136.029ZM79.0179 66.1895C77.0292 67.1569 75.1382 68.3134 73.371 69.643L77.1288 74.6371C78.5751 73.5489 80.1227 72.6024 81.7503 71.8106L79.0179 66.1895ZM59.6249 100.25H65.8749V97.125C65.8727 90.1568 68.4644 83.4373 73.1452 78.2754L68.5113 74.0825C62.7895 80.3927 59.6217 88.607 59.6249 97.125V100.25ZM178.375 184.625V156.5H172.125V181.5H140.875V144H144V137.75H138.551C131.461 133.859 123.505 131.815 115.418 131.805C107.33 131.795 99.3691 133.82 92.2691 137.693L92.164 137.75H68.9999C67.0798 137.752 65.186 138.196 63.4649 139.047C61.7438 139.899 60.2417 141.135 59.0748 142.66C57.9079 144.184 57.1075 145.957 56.7355 147.841C56.3635 149.725 56.4299 151.669 56.9296 153.523L44.7589 147.945C45.0096 147.506 45.3175 147.102 45.6745 146.743L52.4597 139.958C53.0454 139.373 53.3745 138.578 53.3749 137.75V97.125C53.391 88.2485 56.3061 79.6201 61.6768 72.5526C67.0475 65.4851 74.5798 60.3654 83.1277 57.9723C83.59 57.8442 84.0166 57.6113 84.3744 57.2918C84.7323 56.9723 85.0118 56.5747 85.1912 56.1298C85.3707 55.6848 85.4453 55.2046 85.4093 54.7262C85.3732 54.2478 85.2276 53.7842 84.9835 53.3711L77.6011 40.875H110.399L103.016 53.3711C102.772 53.7842 102.626 54.2478 102.59 54.7262C102.554 55.2046 102.629 55.6848 102.808 56.1298C102.988 56.5747 103.267 56.9723 103.625 57.2918C103.983 57.6113 104.41 57.8442 104.872 57.9723C113.42 60.3653 120.952 65.485 126.323 72.5525C131.694 79.62 134.609 88.2484 134.625 97.125V131.5H140.875V97.125C140.856 87.5718 137.927 78.251 132.48 70.4032C127.032 62.5554 119.324 56.5529 110.38 53.1946L118.566 39.3395C118.846 38.8649 118.996 38.3246 119 37.7734C119.004 37.2222 118.862 36.6798 118.589 36.201C118.316 35.7223 117.921 35.3244 117.444 35.0476C116.968 34.7708 116.426 34.625 115.875 34.625H72.1249C71.5737 34.625 71.0323 34.7708 70.5557 35.0476C70.079 35.3244 69.684 35.7223 69.4108 36.201C69.1376 36.6798 68.9959 37.2222 69 37.7734C69.0041 38.3246 69.154 38.8649 69.4343 39.3395L77.6199 53.1946C68.6763 56.5529 60.9678 62.5554 55.5201 70.4032C50.0725 78.251 47.1442 87.5718 47.1249 97.125V136.456L41.255 142.325C40.3711 143.208 39.6313 144.225 39.0628 145.338L28.516 140.507C25.4318 139.134 21.9448 138.967 18.7437 140.04C15.5426 141.112 12.8602 143.347 11.2265 146.301C7.63275 152.99 10.1863 161.835 16.9968 165.247L53.4351 183.465C59.0788 186.276 65.2965 187.743 71.6015 187.75H115.875V181.5H71.6015C66.2664 181.493 61.0053 180.252 56.23 177.873L19.7933 159.655C16.1972 157.858 14.8433 152.759 16.7292 149.264C17.5966 147.694 19.0221 146.506 20.7235 145.937C22.4248 145.368 24.278 145.458 25.916 146.19L61.4484 162.466C61.8568 162.653 62.3007 162.75 62.7499 162.75H97.1249V156.5H68.9999C67.3423 156.5 65.7526 155.842 64.5805 154.669C63.4084 153.497 62.7499 151.908 62.7499 150.25C62.7499 148.592 63.4084 147.003 64.5805 145.831C65.7526 144.659 67.3423 144 68.9999 144H92.957C93.4769 144 93.9885 143.87 94.4456 143.623L95.2542 143.185C101.28 139.897 108.02 138.136 114.883 138.057C121.747 137.979 128.526 139.584 134.625 142.733V181.5H122.125V187.75H175.25C176.079 187.75 176.874 187.421 177.46 186.835C178.046 186.249 178.375 185.454 178.375 184.625ZM159.625 169C159.625 167.764 159.258 166.556 158.572 165.528C157.885 164.5 156.909 163.699 155.767 163.226C154.625 162.753 153.368 162.629 152.156 162.87C150.943 163.111 149.83 163.707 148.956 164.581C148.081 165.455 147.486 166.568 147.245 167.781C147.004 168.993 147.128 170.25 147.601 171.392C148.074 172.534 148.875 173.51 149.903 174.197C150.93 174.883 152.139 175.25 153.375 175.25C155.032 175.248 156.621 174.589 157.792 173.417C158.964 172.246 159.623 170.657 159.625 169ZM97.1249 84.625V97.125C100.44 97.125 103.62 98.442 105.964 100.786C108.308 103.13 109.625 106.31 109.625 109.625C109.625 112.94 108.308 116.12 105.964 118.464C103.62 120.808 100.44 122.125 97.1249 122.125V128.375H90.8749V122.125C87.5609 122.121 84.3836 120.803 82.0402 118.46C79.6968 116.116 78.3787 112.939 78.3749 109.625H84.6249C84.6269 111.282 85.286 112.871 86.4577 114.042C87.6294 115.214 89.2179 115.873 90.8749 115.875V103.375C87.5597 103.375 84.3803 102.058 82.0361 99.7139C79.6919 97.3697 78.3749 94.1902 78.3749 90.875C78.3749 87.5598 79.6919 84.3804 82.0361 82.0362C84.3803 79.692 87.5597 78.375 90.8749 78.375V72.125H97.1249V78.375C100.439 78.3788 103.616 79.6969 105.96 82.0403C108.303 84.3837 109.621 87.561 109.625 90.875H103.375C103.373 89.218 102.714 87.6295 101.542 86.4578C100.371 85.2861 98.7819 84.627 97.1249 84.625ZM90.8749 84.625C89.2173 84.625 87.6276 85.2835 86.4555 86.4556C85.2834 87.6277 84.6249 89.2174 84.6249 90.875C84.6249 92.5326 85.2834 94.1224 86.4555 95.2945C87.6276 96.4666 89.2173 97.125 90.8749 97.125V84.625ZM97.1249 103.375V115.875C98.7825 115.875 100.372 115.217 101.544 114.044C102.716 112.872 103.375 111.283 103.375 109.625C103.375 107.967 102.716 106.378 101.544 105.206C100.372 104.034 98.7825 103.375 97.1249 103.375ZM106.239 7.36565C124.543 9.95286 141.558 18.269 154.846 31.1219C168.133 43.9748 177.01 60.7045 180.203 78.9129L186.36 77.8371C183.645 62.3427 177.075 47.7803 167.256 35.4909C157.436 23.2014 144.683 13.5799 130.169 7.51226C115.656 1.44459 99.8496 -0.874223 84.2052 0.769314C68.5607 2.41285 53.5811 7.96592 40.6456 16.9172C39.9818 17.377 39.5217 18.076 39.3619 18.8676C39.202 19.6592 39.3548 20.4819 39.7882 21.1633L50.2199 37.5649C50.4471 37.9222 50.7446 38.2296 51.0943 38.4685C51.4439 38.7073 51.8385 38.8726 52.254 38.9543C52.6696 39.036 53.0973 39.0324 53.5114 38.9437C53.9255 38.855 54.3172 38.683 54.6628 38.4383C68.8298 28.3742 86.3204 24.134 103.523 26.593C140.69 31.8446 166.656 66.3551 161.403 103.522C160.566 109.478 158.944 115.296 156.58 120.827L153.554 118.536C153.091 118.185 152.54 117.971 151.962 117.916C151.385 117.862 150.803 117.969 150.283 118.226C149.763 118.483 149.324 118.88 149.017 119.372C148.71 119.865 148.546 120.433 148.543 121.013L148.403 152.26C148.401 152.745 148.512 153.224 148.727 153.659C148.942 154.094 149.255 154.473 149.642 154.766C150.029 155.059 150.479 155.257 150.956 155.346C151.433 155.435 151.924 155.412 152.39 155.278L182.426 146.663C182.984 146.502 183.486 146.19 183.876 145.761C184.267 145.331 184.53 144.802 184.636 144.231C184.743 143.661 184.688 143.072 184.478 142.531C184.269 141.99 183.913 141.517 183.45 141.167L177.495 136.659C185.21 121.491 188.679 104.518 187.534 87.5387L181.299 87.9633C181.71 94.0621 181.485 100.187 180.628 106.239C179.166 116.69 175.819 126.789 170.75 136.044C170.389 136.702 170.277 137.467 170.434 138.2C170.591 138.933 171.006 139.585 171.604 140.038L174.695 142.378L154.672 148.12L154.765 127.29L155.903 128.149C156.27 128.427 156.693 128.62 157.143 128.715C157.592 128.81 158.058 128.805 158.505 128.699C158.952 128.594 159.371 128.391 159.731 128.105C160.091 127.82 160.384 127.458 160.588 127.046C164.121 119.919 166.486 112.271 167.591 104.393C173.325 63.8168 144.977 26.1383 104.398 20.4063C86.7359 17.8795 68.7559 21.8193 53.7691 31.5L46.7019 20.3879C64.3354 9.02806 85.4727 4.40477 106.239 7.36565Z" fill="#F4538D"/>
</svg>
