<svg width="184" height="171" viewBox="0 0 184 171" fill="none" xmlns="http://www.w3.org/2000/svg">
<path d="M92 128.918C90.0163 128.918 88.4062 130.414 88.4062 132.258C88.4062 134.101 90.0163 135.598 92 135.598C93.9837 135.598 95.5938 134.101 95.5938 132.258C95.5938 130.414 93.9837 128.918 92 128.918Z" fill="#F4538D"/>
<path d="M168.578 20.4966C159.735 17.1865 148.237 15.3633 136.203 15.3633C124.169 15.3633 112.672 17.1865 103.828 20.4966C98.6021 22.4528 94.6119 24.8434 92 27.526C89.3881 24.8434 85.3979 22.4531 80.1719 20.497C71.3284 17.1865 59.8305 15.3633 47.7969 15.3633C35.7632 15.3633 24.2654 17.1865 15.4219 20.4966C5.47687 24.2192 0 29.5129 0 35.4023V115.559C0 121.448 5.47687 126.742 15.4219 130.464C23.6469 133.543 34.1687 135.333 45.2812 135.569V135.598C45.2812 147.022 65.366 155.637 92 155.637C118.634 155.637 138.719 147.022 138.719 135.598V135.569C149.831 135.333 160.353 133.543 168.578 130.464C178.523 126.742 184 121.448 184 115.559V35.4023C184 29.5129 178.523 24.2192 168.578 20.4966ZM176.812 95.5195C176.812 98.3708 172.628 101.708 165.893 104.229C158.603 106.958 148.816 108.609 138.719 108.846V95.5195C138.719 95.5098 138.718 95.5002 138.718 95.4908C149.831 95.2553 160.353 93.4652 168.579 90.3862C171.807 89.1778 174.561 87.8032 176.813 86.2969L176.812 95.5195ZM88.4062 55.4414C88.4062 58.2926 84.222 61.6298 77.4866 64.1511C69.5923 67.1061 58.7707 68.8008 47.7969 68.8008C36.823 68.8008 26.0015 67.1061 18.1071 64.1511C11.3717 61.6298 7.1875 58.2926 7.1875 55.4414V46.2188C9.4397 47.725 12.1936 49.0997 15.4219 50.3081C24.2654 53.6182 35.7632 55.4414 47.7969 55.4414C59.8305 55.4414 71.3284 53.6182 80.1719 50.3081C83.4002 49.0997 86.154 47.725 88.4062 46.2188V55.4414ZM15.4219 70.3471C24.2654 73.6572 35.7632 75.4805 47.7969 75.4805C59.8305 75.4805 71.3284 73.6572 80.1719 70.3471C83.4002 69.1388 86.154 67.7641 88.4062 66.2578V75.5396C79.1092 75.8322 70.1931 77.2503 62.9815 79.6105C55.7484 81.9781 50.5436 85.1353 47.7131 88.8388C36.768 88.8302 25.9814 87.1375 18.1071 84.1901C11.3717 81.6689 7.1875 78.3317 7.1875 75.4805V66.2578C9.4397 67.7641 12.1936 69.1388 15.4219 70.3471ZM7.1875 86.2969C9.4397 87.8032 12.1936 89.1778 15.4219 90.3862C23.6472 93.4649 34.1694 95.255 45.2823 95.4908C45.2823 95.5005 45.2816 95.5102 45.2816 95.5195V108.846C35.1842 108.609 25.3974 106.958 18.1075 104.229C11.3717 101.708 7.1875 98.3708 7.1875 95.5195V86.2969ZM52.849 93.8787C55.5123 88.1184 70.8846 82.1602 92 82.1602C113.115 82.1602 128.488 88.1184 131.148 93.872C131.406 94.4334 131.531 94.9721 131.531 95.5195C131.531 98.4559 127.636 101.718 121.111 104.244C113.393 107.233 103.055 108.879 92 108.879C80.9453 108.879 70.6068 107.233 62.8888 104.244C56.364 101.718 52.4688 98.4559 52.4688 95.5195C52.4688 94.9721 52.5942 94.4334 52.849 93.8787ZM176.812 75.4805C176.812 78.3317 172.628 81.6689 165.893 84.1901C158.019 87.1375 147.233 88.8302 136.288 88.8388C133.46 85.1373 128.254 81.9788 121.018 79.6105C113.807 77.2499 104.891 75.8322 95.5938 75.5396V66.2578C97.846 67.7641 100.6 69.1388 103.828 70.3471C112.672 73.6572 124.169 75.4805 136.203 75.4805C148.237 75.4805 159.735 73.6572 168.578 70.3471C171.806 69.1388 174.56 67.7641 176.812 66.2578V75.4805ZM176.812 55.4414C176.812 58.2926 172.628 61.6298 165.893 64.1511C157.998 67.1061 147.177 68.8008 136.203 68.8008C125.229 68.8008 114.408 67.1061 106.513 64.1511C99.778 61.6298 95.5938 58.2926 95.5938 55.4414V46.2188C97.846 47.725 100.6 49.0997 103.828 50.3081C112.672 53.6182 124.169 55.4414 136.203 55.4414C148.237 55.4414 159.735 53.6182 168.578 50.3081C171.806 49.0997 174.56 47.725 176.812 46.2188V55.4414ZM106.513 26.6927C114.408 23.7376 125.229 22.043 136.203 22.043C147.177 22.043 157.998 23.7376 165.893 26.6927C172.628 29.2139 176.812 32.5511 176.812 35.4023C176.812 38.2536 172.628 41.5907 165.893 44.112C157.998 47.0671 147.177 48.7617 136.203 48.7617C125.229 48.7617 114.408 47.0671 106.513 44.112C99.778 41.5907 95.5938 38.2536 95.5938 35.4023C95.5938 32.5511 99.778 29.2139 106.513 26.6927ZM18.1071 26.6927C26.0015 23.7376 36.823 22.043 47.7969 22.043C58.7707 22.043 69.5923 23.7376 77.4866 26.6927C84.222 29.2139 88.4062 32.5511 88.4062 35.4023C88.4062 38.2536 84.222 41.5907 77.4866 44.112C69.5923 47.0671 58.7707 48.7617 47.7969 48.7617C36.823 48.7617 26.0015 47.0671 18.1071 44.112C11.3717 41.5907 7.1875 38.2536 7.1875 35.4023C7.1875 32.5511 11.3717 29.2139 18.1071 26.6927ZM18.1071 124.268C11.3717 121.747 7.1875 118.41 7.1875 115.559V106.336C9.4397 107.842 12.1936 109.217 15.4219 110.425C23.6469 113.504 34.1687 115.294 45.2812 115.53V128.885C35.1839 128.648 25.397 126.997 18.1071 124.268ZM121.111 144.322C113.393 147.311 103.055 148.957 92 148.957C80.9453 148.957 70.6068 147.311 62.8888 144.322C56.364 141.796 52.4688 138.534 52.4688 135.598V126.57C53.2827 127.117 54.1823 127.661 55.1799 128.198C60.7606 131.199 68.3538 133.419 77.1391 134.617C77.3163 134.641 77.4917 134.653 77.6656 134.653C79.4194 134.653 80.9543 133.458 81.2166 131.798C81.5048 129.973 80.1464 128.276 78.1831 128.008C61.4812 125.729 52.4688 119.893 52.4688 115.559V106.501C60.6028 112.032 74.961 115.559 92 115.559C109.039 115.559 123.397 112.032 131.531 106.501V115.559C131.531 119.893 122.519 125.729 105.817 128.008C103.853 128.276 102.495 129.973 102.783 131.798C103.046 133.458 104.581 134.653 106.334 134.653C106.508 134.653 106.684 134.641 106.861 134.617C115.646 133.419 123.239 131.199 128.82 128.198C129.817 127.661 130.717 127.117 131.531 126.57V135.598C131.531 138.534 127.636 141.796 121.111 144.322ZM165.893 124.268C158.603 126.997 148.816 128.648 138.719 128.885V115.53C149.831 115.294 160.353 113.504 168.578 110.425C171.806 109.217 174.56 107.842 176.812 106.336V115.559C176.812 118.41 172.628 121.747 165.893 124.268Z" fill="#F4538D"/>
</svg>
