<svg width="142" height="142" viewBox="0 0 142 142" fill="none" xmlns="http://www.w3.org/2000/svg">
<path d="M71 142C64.2004 142 57.9421 138.409 54.4698 132.68C51.6253 134.237 48.3862 135.077 45.1377 135.077C41.7644 135.077 38.4315 134.182 35.4994 132.488C29.6109 129.088 25.9877 122.849 25.8459 116.153C19.1118 116.008 12.8807 112.337 9.51123 106.5C6.11155 100.612 6.09241 93.3988 9.31681 87.5291C6.87091 86.0478 4.77891 84.0396 3.18918 81.6309C1.10327 78.4758 0 74.7991 0 71C0 64.2004 3.59132 57.9421 9.31958 54.47C7.76285 51.6253 6.9225 48.3865 6.9225 45.1377C6.9225 43.3216 7.17904 41.5206 7.68519 39.785C8.00664 38.6822 9.1615 38.0488 10.2645 38.3702C11.3675 38.6919 12.0007 39.8465 11.6792 40.9495C11.2835 42.3066 11.0829 43.7158 11.0829 45.1374C11.0829 48.3133 12.1052 51.4767 13.9612 54.0449C14.3276 54.5518 14.4466 55.197 14.2849 55.8013C14.1232 56.4056 13.6977 56.9051 13.1272 57.1611C7.67965 59.6056 4.16016 65.0377 4.16016 71C4.16016 73.9806 5.02491 76.8639 6.66069 79.3378C8.25541 81.754 10.4908 83.6558 13.127 84.8386C13.6977 85.0946 14.1226 85.5941 14.2846 86.1982C14.4463 86.8025 14.3279 87.4473 13.9615 87.9543C10.4656 92.7934 10.133 99.2563 13.1145 104.419C15.8125 109.093 20.849 111.997 26.2592 111.997C26.7856 111.997 27.3026 111.971 27.7962 111.919C28.4189 111.854 29.0384 112.073 29.4814 112.516C29.9248 112.958 30.145 113.577 30.0813 114.2C29.4728 120.139 32.4162 125.904 37.5806 128.886C39.8812 130.215 42.4943 130.917 45.1382 130.917C48.3141 130.917 51.4772 129.895 54.0454 128.039C54.5524 127.672 55.1975 127.553 55.8018 127.715C56.4062 127.877 56.9054 128.302 57.1617 128.873C59.6056 134.32 65.0377 137.84 71 137.84C73.9806 137.84 76.8639 136.975 79.3378 135.339C81.754 133.745 83.6555 131.509 84.8386 128.873C85.0946 128.302 85.5941 127.877 86.1982 127.715C86.8025 127.553 87.4473 127.672 87.9543 128.039C92.7934 131.534 99.2566 131.867 104.419 128.886C109.093 126.188 111.996 121.151 111.996 115.741C111.996 115.214 111.97 114.696 111.919 114.204C111.854 113.581 112.073 112.962 112.516 112.518C112.958 112.075 113.576 111.855 114.2 111.918C120.138 112.527 125.903 109.583 128.885 104.419C130.214 102.119 130.917 99.5051 130.917 96.8615C130.917 93.6856 129.895 90.5222 128.039 87.954C127.672 87.447 127.553 86.8019 127.715 86.1976C127.877 85.5933 128.302 85.0938 128.872 84.8378C134.32 82.3944 137.84 76.9623 137.84 71C137.84 68.0194 136.975 65.1361 135.339 62.6622C133.745 60.246 131.509 58.3442 128.873 57.1614C128.302 56.9054 127.877 56.4059 127.715 55.8018C127.554 55.1975 127.672 54.5527 128.039 54.0457C131.534 49.2066 131.867 42.7437 128.886 37.5806C126.188 32.9068 121.151 30.0033 115.741 30.0033C115.214 30.0033 114.697 30.0294 114.204 30.081C113.581 30.1456 112.962 29.9268 112.519 29.4844C112.075 29.042 111.855 28.4233 111.919 27.8001C112.527 21.8608 109.584 16.0965 104.419 13.1145C102.119 11.7854 99.5057 11.0829 96.8617 11.0829C93.6859 11.0829 90.5228 12.1052 87.9546 13.9615C87.4479 14.3279 86.803 14.4468 86.1982 14.2849C85.5938 14.1232 85.0946 13.698 84.8383 13.1272C82.3944 7.67993 76.9623 4.16016 71 4.16016C68.0194 4.16016 65.1361 5.02491 62.6622 6.66069C60.246 8.25514 58.3445 10.4908 57.1614 13.127C56.9054 13.6977 56.4059 14.1229 55.8018 14.2846C55.1981 14.4466 54.553 14.3279 54.0457 13.9615C49.2069 10.4656 42.7437 10.133 37.5806 13.1145C32.9068 15.8125 30.0036 20.849 30.0036 26.2592C30.0036 26.7864 30.0297 27.3037 30.081 27.7962C30.1459 28.4191 29.9268 29.0384 29.4844 29.4816C29.0418 29.9248 28.4233 30.145 27.8001 30.0813C23.1837 29.6073 18.5149 31.3165 15.313 34.6524C14.5176 35.4811 13.2007 35.5083 12.372 34.7129C11.5433 33.9175 11.5161 32.6006 12.3116 31.7719C15.8435 28.0919 20.7733 25.9646 25.8479 25.849C25.991 19.1134 29.6619 12.8815 35.5 9.51123C41.3877 6.11127 48.6009 6.09241 54.4706 9.31709C55.9519 6.87091 57.9601 4.77919 60.3691 3.18945C63.5242 1.10327 67.2009 0 71 0C77.7996 0 84.0579 3.59132 87.5302 9.31958C90.3747 7.76285 93.6138 6.9225 96.8623 6.9225C100.236 6.9225 103.568 7.81777 106.501 9.51178C112.389 12.912 116.012 19.1506 116.154 25.8473C122.888 25.9918 129.119 29.6627 132.489 35.5003C135.888 41.388 135.908 48.6012 132.683 54.4709C135.129 55.9522 137.221 57.9604 138.811 60.3691C140.897 63.5242 142 67.2009 142 71C142 77.7996 138.409 84.0579 132.68 87.53C134.237 90.3747 135.077 93.6135 135.077 96.8623C135.077 100.236 134.182 103.568 132.488 106.501C129.088 112.389 122.849 116.012 116.153 116.154C116.008 122.888 112.338 129.119 106.5 132.489C100.612 135.888 93.3988 135.908 87.5294 132.683C86.0481 135.129 84.0399 137.221 81.6309 138.811C78.4758 140.897 74.7991 142 71 142Z" fill="#F4538D"/>
<path d="M71.9363 123.95C42.7395 123.95 18.9858 100.197 18.9858 71C18.9858 41.8029 42.7392 18.0495 71.9363 18.0495C101.133 18.0495 124.887 41.8029 124.887 71C124.887 100.197 101.133 123.95 71.9363 123.95ZM71.9363 22.2097C45.0334 22.2097 23.146 44.0968 23.146 71C23.146 97.9032 45.0331 119.79 71.9363 119.79C98.8395 119.79 120.727 97.9032 120.727 71C120.727 44.0968 98.8395 22.2097 71.9363 22.2097Z" fill="#F4538D"/>
<path d="M61.6982 105.731C59.0226 105.731 56.5343 104.325 55.1506 102.009L38.8151 74.6856C36.6554 71.0738 37.8369 66.3764 41.4488 64.2148L49.6895 59.2886C51.4406 58.2416 53.4946 57.939 55.4713 58.4366C57.4487 58.9344 59.1144 60.1739 60.1614 61.9264L66.4946 72.5185L81.8278 41.5846C83.7007 37.8122 88.2907 36.2666 92.0604 38.1381L100.662 42.3973C102.491 43.3044 103.857 44.8684 104.508 46.8015C105.16 48.7346 105.019 50.8058 104.112 52.6332L98.0854 64.788C97.5751 65.8173 96.3276 66.238 95.2978 65.7277C94.2686 65.2174 93.8479 63.9693 94.3582 62.9401L100.385 50.7841C100.798 49.9518 100.862 49.0097 100.566 48.13C100.269 47.2499 99.6471 46.538 98.8143 46.1248L90.2122 41.8653C88.4957 41.0128 86.4064 41.7169 85.5544 43.4334L68.5289 77.7813C67.8652 79.2329 65.6575 79.3206 64.8799 77.925L56.5901 64.0606C56.1127 63.2615 55.3548 62.6972 54.4553 62.4708C53.5559 62.2445 52.6215 62.3824 51.8239 62.8591L43.584 67.7847C41.9408 68.7682 41.4027 70.9065 42.3856 72.5506L58.7212 99.8745C59.3754 100.969 60.5705 101.618 61.8371 101.567L73.4171 101.113C74.6887 101.062 75.828 100.324 76.3902 99.1856L90.6665 70.389C91.1768 69.3598 92.4248 68.9388 93.454 69.4494C94.4833 69.9597 94.9043 71.2077 94.394 72.2369L80.1191 101.031C78.8827 103.534 76.3771 105.159 73.581 105.269L62.0013 105.724C61.9001 105.729 61.7988 105.731 61.6982 105.731Z" fill="#F4538D"/>
</svg>
