<svg width="200" height="200" viewBox="0 0 200 200" fill="none" xmlns="http://www.w3.org/2000/svg">
<path d="M156.572 151.961C156.572 146.682 153.343 142.143 148.757 140.216C149.687 138.449 150.213 136.438 150.213 134.307C150.213 127.286 144.501 121.574 137.479 121.574H120.545V99.9455C142.404 94.2811 158.594 74.3866 158.594 50.7812C158.594 22.7804 135.814 0 107.813 0C100.816 0 94.0331 1.40078 87.6526 4.16366C85.673 5.02069 84.7632 7.32069 85.6202 9.30037C86.4773 11.2801 88.7784 12.1906 90.7569 11.3328C96.1515 8.99686 101.89 7.81248 107.813 7.81248C131.506 7.81248 150.781 27.0882 150.781 50.7812C150.781 74.4741 131.506 93.7498 107.813 93.7498C84.1198 93.7498 64.8437 74.4741 64.8437 50.7812C64.8437 44.8566 66.0285 39.1179 68.3652 33.7234C69.2226 31.7437 68.3132 29.4437 66.3335 28.5863C64.355 27.7289 62.0539 28.6382 61.1968 30.6183C58.4328 36.9984 57.0312 43.7823 57.0312 50.7812C57.0312 74.3866 73.221 94.2807 95.0796 99.9455V117.598H94.4319C82.9941 117.598 72.1312 122.349 64.3464 130.693H45.3125C44.2762 130.693 43.2824 131.105 42.5496 131.838C41.8172 132.571 41.4055 133.565 41.4063 134.602L41.4336 183.001C41.4348 185.157 43.1832 186.905 45.3398 186.905H64.3668C72.1722 195.25 83.0277 200 94.4319 200L134.471 200C141.492 200 147.204 194.288 147.204 187.267C147.204 185.087 146.654 183.034 145.684 181.238C150.122 179.246 153.22 174.785 153.22 169.614C153.22 166.968 152.409 164.507 151.022 162.469C154.371 160.173 156.572 156.319 156.572 151.961ZM107.813 101.562C109.473 101.562 111.114 101.479 112.733 101.323V121.574H102.892V121.504V101.323C104.512 101.48 106.153 101.562 107.813 101.562ZM143.839 156.882H140.488C138.331 156.882 136.582 158.631 136.582 160.788C136.582 162.945 138.331 164.694 140.488 164.694C143.201 164.694 145.408 166.901 145.408 169.614C145.408 172.327 143.201 174.534 140.488 174.534H134.471C132.314 174.534 130.565 176.283 130.565 178.441C130.565 180.598 132.313 182.347 134.471 182.347C137.184 182.347 139.392 184.554 139.392 187.268C139.392 189.981 137.185 192.188 134.471 192.188L94.4319 192.187C84.7046 192.187 75.4636 187.912 69.0789 180.457C68.3371 179.591 67.2531 179.092 66.1121 179.092H49.2441L49.2211 138.506H66.0945C67.2378 138.506 68.3234 138.005 69.0656 137.135C75.4253 129.684 84.671 125.41 94.4315 125.41H95.0792V125.48C95.0792 127.638 96.8284 129.386 98.9854 129.386H137.479C140.192 129.386 142.4 131.593 142.4 134.307C142.4 137.02 140.193 139.227 137.479 139.227C135.322 139.227 133.573 140.976 133.573 143.134C133.573 145.291 135.322 147.04 137.479 147.04H143.838C146.552 147.04 148.759 149.247 148.759 151.96C148.76 154.674 146.553 156.882 143.839 156.882Z" fill="#F4538D"/>
<path d="M95.0524 68.6007C97.3372 70.8851 100.338 72.0273 103.338 72.0273C106.339 72.0273 109.34 70.8851 111.624 68.6007L130.692 49.5335C135.26 44.9648 135.26 37.5304 130.692 32.9617C126.122 28.3933 118.689 28.3933 114.12 32.9617L103.338 43.7429L101.506 41.9109C96.9372 37.3425 89.5036 37.3425 84.9345 41.9109C82.7212 44.1242 81.5024 47.0667 81.5024 50.1968C81.5024 53.3269 82.7212 56.2695 84.9345 58.4828L95.0524 68.6007ZM90.4587 47.4355C91.22 46.6742 92.22 46.2937 93.22 46.2937C94.22 46.2937 95.2204 46.6746 95.9814 47.4355L100.576 52.0296C102.102 53.555 104.574 53.555 106.1 52.0296L119.644 38.4863C121.167 36.9636 123.644 36.9636 125.167 38.4863C125.905 39.2238 126.311 40.2046 126.311 41.2476C126.311 42.2906 125.905 43.2714 125.167 44.0089L106.1 63.0761C104.577 64.5988 102.1 64.5988 100.577 63.0761L90.4587 52.9581C89.7208 52.2206 89.3146 51.2402 89.3146 50.1968C89.3146 49.1535 89.7208 48.173 90.4587 47.4355Z" fill="#F4538D"/>
<path d="M74.6671 21.5401C75.6675 21.5401 76.6679 21.1584 77.4308 20.3956C78.9562 18.8702 78.9562 16.3967 77.4308 14.8713C75.905 13.3459 73.4323 13.3459 71.9062 14.8713L71.9042 14.8733C70.3788 16.3987 70.38 18.8709 71.9054 20.3963C72.6683 21.1588 73.6679 21.5401 74.6671 21.5401Z" fill="#F4538D"/>
</svg>
