<svg width="142" height="142" viewBox="0 0 142 142" fill="none" xmlns="http://www.w3.org/2000/svg">
<g clip-path="url(#clip0)">
<path d="M137.267 89.9334H134.9V21.3001C134.9 17.3789 131.721 14.2001 127.8 14.2001H93.6656C91.7854 9.89208 87.5337 7.10532 82.8333 7.10008H80.1306C79.0679 2.9248 75.3084 0.00228882 71 0.00228882C66.6916 0.00228882 62.9321 2.9248 61.8694 7.10008H59.1667C54.4663 7.10745 50.215 9.89336 48.3321 14.2001H14.2C10.2788 14.2001 7.1 17.3789 7.1 21.3001V89.9334H4.73333C2.11919 89.9334 0 92.0526 0 94.6668C0.00782746 102.506 6.3608 108.859 14.2 108.867H27.3894L17.5559 135.932C17.1353 137.363 17.4139 138.909 18.3077 140.103C19.2015 141.297 20.6059 142 22.0976 142H33.7297C35.7786 142.007 37.597 140.689 38.2264 138.739L48.99 108.867H61.5333V137.267C61.5333 139.881 63.6525 142 66.2667 142H75.7333C78.3475 142 80.4667 139.881 80.4667 137.267V108.867H93.01L103.731 138.602C104.329 140.611 106.173 141.992 108.27 142H119.902C121.394 142.006 122.799 141.303 123.689 140.107C124.611 138.87 124.876 137.262 124.399 135.795L114.611 108.867H127.8C135.639 108.859 141.992 102.506 142 94.6668C142 92.0526 139.881 89.9334 137.267 89.9334ZM26.0333 52.0668C23.7224 52.0635 21.7517 50.392 21.3713 48.1126C20.9908 45.8333 22.312 43.6124 24.4965 42.8588C26.6811 42.1053 29.0905 43.0393 30.1963 45.0685C30.8152 46.22 32.2504 46.6518 33.4019 46.0329C34.5535 45.414 34.9853 43.9788 34.3664 42.8273C33.2205 40.7122 31.3056 39.1185 29.0177 38.3756C30.2809 35.1586 33.4129 33.0677 36.8684 33.1348C40.3239 33.2018 43.3725 35.4126 44.5099 38.6761C44.5494 38.758 44.5945 38.8371 44.6448 38.9128C44.73 39.1126 44.8423 39.2998 44.9785 39.469C45.0739 39.5568 45.1768 39.636 45.2862 39.7057C45.4126 39.823 45.5515 39.9262 45.7003 40.0133C45.8825 40.089 46.0733 40.1422 46.2683 40.1719C46.3672 40.2067 46.4684 40.2343 46.5713 40.2547C49.5859 40.4829 51.9437 42.9471 52.0385 45.9689C52.1334 48.9907 49.9349 51.5979 46.9405 52.0147C46.6789 52.0544 46.4145 52.0718 46.15 52.0668H26.0333ZM46.15 56.8001C46.67 56.8051 47.1895 56.7647 47.7025 56.6794C50.6542 56.2243 53.2792 54.5507 54.9374 52.0668L62.2433 60.5418L60.421 65.0574L57.9833 63.4268C56.8653 62.6673 55.4748 62.4251 54.1659 62.7617C52.839 63.1043 51.7234 64.0009 51.1034 65.2231L49.7047 68.0631L48.2847 65.2065C47.673 63.9997 46.5741 63.1124 45.2655 62.7686C43.957 62.4249 42.5638 62.6575 41.438 63.4078L38.7802 65.1757L37.0667 61.7701L41.0593 56.8001H46.15ZM33.8031 65.8218L34.551 67.3176C35.1711 68.5334 36.2841 69.424 37.6063 69.7623C38.9027 70.1017 40.2825 69.8663 41.393 69.1162L44.0508 67.3483L45.4708 70.1623C46.2572 71.7776 47.8941 72.8047 49.6907 72.8103C51.4873 72.8158 53.1305 71.7987 53.9269 70.1883L55.3469 67.3483L57.7964 68.9908C58.9857 69.7772 60.4652 69.988 61.8269 69.5652C63.1885 69.1423 64.2884 68.1305 64.823 66.8087L65.7176 64.577L78.6775 79.6361C79.2109 80.3311 80.0847 80.6745 80.9487 80.5287C81.8126 80.3829 82.5253 79.7718 82.8012 78.9402C83.077 78.1086 82.8709 77.1926 82.2653 76.5594L79.2833 73.0851L82.6724 69.2795C83.2915 70.4641 84.3859 71.3289 85.6815 71.6573C86.9772 71.9857 88.3513 71.7467 89.46 71.0001L91.3888 69.7126L93.0999 73.1348C93.8427 74.6532 95.3459 75.6535 97.0333 75.7524C97.1351 75.7524 97.2392 75.7524 97.341 75.7524C98.9219 75.7575 100.399 74.9644 101.267 73.6437L102.425 71.9065L105.132 73.7099C106.288 74.4849 107.728 74.7089 109.065 74.3217C110.402 73.9345 111.499 72.9758 112.062 71.703L126.813 89.9334H14.4083L33.8031 65.8218ZM86.4236 65.055L95.1045 55.3115C95.5294 54.7123 96.2369 54.3793 96.9694 54.4334C97.7112 54.4461 98.4052 54.8019 98.8486 55.3967L108.663 67.5187L107.754 69.7813L105.047 67.9755C102.87 66.5333 99.9378 67.1202 98.4841 69.289L97.3268 71.0285L95.6133 67.6039C95.006 66.3886 93.9057 65.4929 92.5925 65.1446C91.2793 64.7964 89.8797 65.0293 88.75 65.784L86.8212 67.0714L86.4236 65.055ZM59.1667 11.8334H63.9C65.2071 11.8334 66.2667 10.7738 66.2667 9.46674C66.2667 6.85259 68.3858 4.73341 71 4.73341C73.6141 4.73341 75.7333 6.85259 75.7333 9.46674C75.7333 10.7738 76.7929 11.8334 78.1 11.8334H82.8333C86.7492 11.8464 89.9203 15.0176 89.9333 18.9334C89.9333 20.2405 88.8737 21.3001 87.5667 21.3001H54.4333C53.1263 21.3001 52.0667 20.2405 52.0667 18.9334C52.0809 15.0181 55.2514 11.8477 59.1667 11.8334ZM14.2 18.9334H47.3333C47.3333 22.8546 50.5121 26.0334 54.4333 26.0334H87.5667C91.4879 26.0334 94.6667 22.8546 94.6667 18.9334H127.8C129.107 18.9334 130.167 19.993 130.167 21.3001V86.5515L102.559 52.4715C101.241 50.7479 99.2033 49.7261 97.0333 49.7001H96.9387C94.8342 49.6875 92.8355 50.6216 91.4953 52.2443L76.1546 69.4665L56.729 46.8956C56.7479 46.6447 56.7976 46.4033 56.7976 46.1501C56.7709 41.1484 53.2729 36.8367 48.3841 35.7793C46.0407 30.8714 40.8836 27.9474 35.4688 28.4565C30.054 28.9657 25.5322 32.7997 24.1447 38.0584C19.385 39.0312 16.1341 43.4489 16.6212 48.2826C17.1083 53.1162 21.1752 56.7966 26.0333 56.8001H34.9841L32.473 59.9241L11.8333 85.5811V21.3001C11.8333 19.993 12.8929 18.9334 14.2 18.9334ZM33.7297 137.267L22.0479 137.409L32.4233 108.867H43.9632L33.7297 137.267ZM75.7333 137.267H66.2667V108.867H75.7333V137.267ZM119.902 137.267L108.225 137.132L98.0368 108.867H109.577L119.902 137.267ZM127.8 104.133H14.2C8.9717 104.133 4.73333 99.8951 4.73333 94.6668H137.267C137.267 99.8951 133.028 104.133 127.8 104.133Z" fill="#F4538D"/>
<path d="M71 16.5667C72.3071 16.5667 73.3667 15.5071 73.3667 14.2C73.3667 12.8929 72.3071 11.8333 71 11.8333C69.6929 11.8333 68.6333 12.8929 68.6333 14.2C68.6333 15.5071 69.6929 16.5667 71 16.5667Z" fill="#F4538D"/>
<path d="M112.417 47.3334C118.299 47.3334 123.067 42.5652 123.067 36.6834C123.067 30.8015 118.299 26.0334 112.417 26.0334C106.535 26.0334 101.767 30.8015 101.767 36.6834C101.773 42.5625 106.538 47.3268 112.417 47.3334ZM112.417 30.7667C115.684 30.7667 118.333 33.4157 118.333 36.6834C118.333 39.951 115.684 42.6 112.417 42.6C109.149 42.6 106.5 39.951 106.5 36.6834C106.5 33.4157 109.149 30.7667 112.417 30.7667Z" fill="#F4538D"/>
<path d="M70.5267 46.9571C71.5183 45.6341 72.4792 44.8886 73.0921 44.9738C74.079 45.1016 75.3807 47.0304 75.9037 48.3155L75.9203 48.3416C75.9355 48.37 75.9521 48.3976 75.97 48.4244C76.0751 48.6484 76.2149 48.8545 76.3842 49.035C76.4342 49.0862 76.4871 49.1344 76.5427 49.1794C76.7131 49.3307 76.9044 49.4566 77.1107 49.5533C77.151 49.5722 77.1746 49.6054 77.2149 49.6219C77.2551 49.6385 77.2622 49.6219 77.2859 49.6361C77.5456 49.7377 77.8212 49.793 78.1 49.7994C78.1379 49.7994 78.1734 49.7781 78.2112 49.7781C78.4381 49.7673 78.6621 49.7234 78.8763 49.648C78.9118 49.6361 78.9449 49.648 78.978 49.629C79.0112 49.6101 79.0727 49.558 79.1295 49.5296C79.3061 49.4428 79.4714 49.3347 79.6218 49.2078C79.6929 49.1507 79.7608 49.0899 79.8253 49.0255C79.9823 48.8548 80.1131 48.6618 80.2134 48.4528C80.2324 48.4149 80.2631 48.3842 80.2797 48.3439L80.2963 48.3179C80.8169 47.0304 82.121 45.1016 83.1079 44.9738C83.7043 44.8815 84.6793 45.6317 85.6733 46.9571C86.1807 47.6335 87.0103 47.9879 87.8498 47.8867C88.6892 47.7856 89.411 47.2443 89.7431 46.4667C90.0752 45.6892 89.9673 44.7935 89.46 44.1171C88.0384 41.6316 85.3457 40.1505 82.4854 40.2807C80.7409 40.5961 79.177 41.5515 78.1 42.9598C77.0231 41.5515 75.4591 40.5961 73.7146 40.2807C70.8535 40.1472 68.1592 41.6292 66.74 44.1171C65.9558 45.1627 66.1677 46.6461 67.2133 47.4304C68.259 48.2146 69.7424 48.0027 70.5267 46.9571Z" fill="#F4538D"/>
</g>
<defs>
<clipPath id="clip0">
<rect width="142" height="142" fill="white"/>
</clipPath>
</defs>
</svg>
